<svg xmlns="http://www.w3.org/2000/svg" version="1.1" xmlns:xlink="http://www.w3.org/1999/xlink" xmlns:svgjs="http://svgjs.dev/svgjs" width="387.188px" height="268.067px"><svg version="1.1" xmlns="http://www.w3.org/2000/svg" xmlns:xlink="http://www.w3.org/1999/xlink" x="0px" y="0px" width="387.188px" height="268.067px" viewBox="0 0 387.188 268.067" enable-background="new 0 0 387.188 268.067" xml:space="preserve">
<g id="SvgjsG1063" display="none">
	
		<path display="inline" fill="none" stroke="#000000" stroke-width="7.445" stroke-linecap="round" stroke-linejoin="round" stroke-miterlimit="10" d="
		M245.67,231.32c0-4.11-3.33-7.44-7.44-7.44c-4.12,0-7.45,3.33-7.45,7.44s3.33,7.45,7.45,7.45
		C242.34,238.77,245.67,235.43,245.67,231.32z"></path>
	
		<path display="inline" fill="none" stroke="#000000" stroke-width="7.445" stroke-linecap="round" stroke-linejoin="round" stroke-miterlimit="10" d="
		M364.79,231.32c0-4.11-3.33-7.44-7.45-7.44c-4.11,0-7.44,3.33-7.44,7.44s3.33,7.45,7.44,7.45
		C361.46,238.77,364.79,235.43,364.79,231.32z"></path>
	
		<path display="inline" fill="none" stroke="#000000" stroke-width="7.445" stroke-linecap="round" stroke-linejoin="round" stroke-miterlimit="10" d="
		M483.91,231.32c0-4.11-3.33-7.44-7.44-7.44c-4.12,0-7.45,3.33-7.45,7.44s3.33,7.45,7.45,7.45
		C480.58,238.77,483.91,235.43,483.91,231.32z"></path>
	
		<path display="inline" fill="none" stroke="#000000" stroke-width="7.445" stroke-linecap="round" stroke-linejoin="round" stroke-miterlimit="10" d="
		M245.67,558.9c0-4.11-3.33-7.44-7.44-7.44c-4.12,0-7.45,3.33-7.45,7.44s3.33,7.44,7.45,7.44
		C242.34,566.34,245.67,563.01,245.67,558.9z"></path>
	
		<path display="inline" fill="none" stroke="#000000" stroke-width="7.445" stroke-linecap="round" stroke-linejoin="round" stroke-miterlimit="10" d="
		M364.79,558.9c0-4.11-3.33-7.44-7.45-7.44c-4.11,0-7.44,3.33-7.44,7.44s3.33,7.44,7.44,7.44
		C361.46,566.34,364.79,563.01,364.79,558.9z"></path>
	
		<path display="inline" fill="none" stroke="#000000" stroke-width="7.445" stroke-linecap="round" stroke-linejoin="round" stroke-miterlimit="10" d="
		M483.91,558.9c0-4.11-3.33-7.44-7.44-7.44c-4.12,0-7.45,3.33-7.45,7.44s3.33,7.44,7.45,7.44
		C480.58,566.34,483.91,563.01,483.91,558.9z"></path>
	
		<path display="inline" fill="none" stroke="#000000" stroke-width="7.445" stroke-linecap="round" stroke-linejoin="round" stroke-miterlimit="10" d="
		M297.79,439.78h119.12c74.01,0,134.01,60,134.01,134.01c0,74.01-60,134.01-134.01,134.01H297.79c-74.01,0-134.02-60-134.02-134.01
		C163.77,499.78,223.78,439.78,297.79,439.78z"></path>
	
		<path display="inline" fill="none" stroke="#000000" stroke-width="7.445" stroke-linecap="round" stroke-linejoin="round" stroke-miterlimit="10" d="
		M357.34,126.17c37.53-18.62,81.6-18.62,119.13,0c66.29,32.89,93.379,113.3,60.49,179.6c-32.9,66.3-113.32,93.38-179.62,60.49
		c-37.52,18.62-81.59,18.62-119.11,0c-66.3-32.89-93.38-113.31-60.49-179.61C210.63,120.35,291.05,93.27,357.34,126.17z"></path>
</g>
<g id="SvgjsG1062">
	<path fill="#FFFFFF" d="M193.59,80.26c16.121,0,29.194,13.063,29.194,29.184c0,16.122-13.073,29.185-29.194,29.185
		c-16.111,0-29.175-13.063-29.175-29.185C164.416,93.323,177.479,80.26,193.59,80.26z"></path>
	<path fill="#FFFFFF" d="M310.338,80.26c16.111,0,29.185,13.063,29.185,29.184c0,16.122-13.073,29.185-29.185,29.185
		c-16.121,0-29.194-13.063-29.194-29.185C281.144,93.323,294.217,80.26,310.338,80.26z"></path>
	<path fill="#FFFFFF" d="M76.863,80.26c16.111,0,29.184,13.063,29.184,29.184c0,16.122-13.073,29.185-29.184,29.185
		c-16.122,0-29.185-13.063-29.185-29.185C47.678,93.323,60.741,80.26,76.863,80.26z"></path>
	<path fill="#FFFFFF" d="M94.14,174.232h82.184c0,22.697-18.405,41.091-41.092,41.091C112.535,215.324,94.14,196.929,94.14,174.232z
		"></path>
	<path fill="#FFFFFF" d="M210.868,174.232h82.183c0,22.697-18.385,41.091-41.082,41.091
		C229.272,215.324,210.868,196.929,210.868,174.232z"></path>
</g>
<g id="SvgjsG1061">
	<path fill="#FF3400" d="M310.338,16.397c64.964,32.232,91.512,111.034,59.28,176.008c-32.242,64.974-111.054,91.512-176.028,59.28
		c-36.77,18.248-79.958,18.248-116.728,0C11.889,219.454-14.65,140.642,17.583,75.668C49.814,10.694,128.626-15.844,193.59,16.397
		C230.37-1.85,273.559-1.85,310.338,16.397z M339.522,109.444c0-16.121-13.073-29.184-29.185-29.184
		c-16.121,0-29.194,13.063-29.194,29.184c0,16.122,13.073,29.185,29.194,29.185C326.449,138.629,339.522,125.566,339.522,109.444z
		 M293.051,174.232h-82.183c0,22.697,18.404,41.091,41.101,41.091C274.666,215.324,293.051,196.929,293.051,174.232z
		 M222.785,109.444c0-16.121-13.073-29.184-29.194-29.184c-16.111,0-29.175,13.063-29.175,29.184
		c0,16.122,13.063,29.185,29.175,29.185C209.711,138.629,222.785,125.566,222.785,109.444z M176.323,174.232H94.14
		c0,22.697,18.395,41.091,41.092,41.091C157.918,215.324,176.323,196.929,176.323,174.232z M106.047,109.444
		c0-16.121-13.073-29.184-29.184-29.184c-16.122,0-29.185,13.063-29.185,29.184c0,16.122,13.063,29.185,29.185,29.185
		C92.974,138.629,106.047,125.566,106.047,109.444z"></path>
</g>
<g id="SvgjsG1060" display="none">
	<path display="inline" fill="#FF0000" d="M238.23,223.88c4.11,0,7.44,3.33,7.44,7.44s-3.33,7.45-7.44,7.45
		c-4.12,0-7.45-3.34-7.45-7.45S234.11,223.88,238.23,223.88z"></path>
	<path display="inline" fill="#FF0000" d="M357.34,223.88c4.12,0,7.45,3.33,7.45,7.44s-3.33,7.45-7.45,7.45
		c-4.11,0-7.44-3.34-7.44-7.45S353.23,223.88,357.34,223.88z"></path>
	<path display="inline" fill="#FF0000" d="M476.47,223.88c4.11,0,7.44,3.33,7.44,7.44s-3.33,7.45-7.44,7.45
		c-4.12,0-7.45-3.34-7.45-7.45S472.35,223.88,476.47,223.88z"></path>
	<path display="inline" fill="#FF0000" d="M476.47,551.46c4.11,0,7.44,3.33,7.44,7.44s-3.33,7.44-7.44,7.44
		c-4.12,0-7.45-3.33-7.45-7.44S472.35,551.46,476.47,551.46z"></path>
	<path display="inline" fill="#FF0000" d="M357.34,551.46c4.12,0,7.45,3.33,7.45,7.44s-3.33,7.44-7.45,7.44
		c-4.11,0-7.44-3.33-7.44-7.44S353.23,551.46,357.34,551.46z"></path>
	<path display="inline" fill="#FF0000" d="M238.23,551.46c4.11,0,7.44,3.33,7.44,7.44s-3.33,7.44-7.44,7.44
		c-4.12,0-7.45-3.33-7.45-7.44S234.11,551.46,238.23,551.46z"></path>
</g>
<g id="SvgjsG1059" display="none">
	
		<path display="inline" fill="none" stroke="#FFFFFF" stroke-width="13.72" stroke-linecap="round" stroke-linejoin="round" stroke-miterlimit="10" d="
		M326.532,71.008c-10.516-3.514-21.877-3.514-32.395,0"></path>
	
		<path display="inline" fill="none" stroke="#FFFFFF" stroke-width="13.72" stroke-linecap="round" stroke-linejoin="round" stroke-miterlimit="10" d="
		M209.793,71.008c-10.517-3.514-21.878-3.514-32.391,0"></path>
	
		<path display="inline" fill="none" stroke="#FFFFFF" stroke-width="13.72" stroke-linecap="round" stroke-linejoin="round" stroke-miterlimit="10" d="
		M93.052,71.008c-10.507-3.514-21.878-3.514-32.385,0"></path>
</g>
</svg><style>@media (prefers-color-scheme: light) { :root { filter: none; } }
@media (prefers-color-scheme: dark) { :root { filter: none; } }
</style></svg>